HIERARCHY
ROOT Hips
{
	OFFSET 0.000000 97.167313 0.000000
	CHANNELS 6 Xposition Yposition Zposition Xrotation Yrotation Zrotation
	JOINT Spine
	{
		OFFSET 0.000000 13.784798 0.064400
		CHANNELS 3 Xrotation Yrotation Zrotation
		JOINT Spine1
		{
			OFFSET 0.000000 12.037903 0.404700
			CHANNELS 3 Xrotation Yrotation Zrotation
			JOINT Spine2
			{
				OFFSET 0.000000 17.795601 0.420200
				CHANNELS 3 Xrotation Yrotation Zrotation
				JOINT Neck
				{
					OFFSET 0.000000 39.131302 11.954600
					CHANNELS 3 Xrotation Yrotation Zrotation
					JOINT Head
					{
						OFFSET 0.000000 14.456192 15.627699
						CHANNELS 3 Xrotation Yrotation Zrotation
						JOINT HeadTop_End
						{
							OFFSET 0.000000 15.703506 7.603401
							CHANNELS 3 Xrotation Yrotation Zrotation
							End Site
							{
								OFFSET 0.000000 17.447403 0.000000
							}
						}
					}
				}
				JOINT LeftShoulder
				{
					OFFSET 17.399500 24.608795 1.168800
					CHANNELS 3 Xrotation Yrotation Zrotation
					JOINT LeftArm
					{
						OFFSET 18.980635 5.765305 1.818600
						CHANNELS 3 Xrotation Yrotation Zrotation
						JOINT LeftForeArm
						{
							OFFSET 49.290169 0.000000 0.000000
							CHANNELS 3 Xrotation Yrotation Zrotation
							JOINT LeftHand
							{
								OFFSET 31.562012 0.000000 0.000000
								CHANNELS 3 Xrotation Yrotation Zrotation
								JOINT LeftHandThumb1
								{
									OFFSET 6.133995 -4.388519 7.076070
									CHANNELS 3 Xrotation Yrotation Zrotation
									JOINT LeftHandThumb2
									{
										OFFSET 6.037666 -3.485840 3.485847
										CHANNELS 3 Xrotation Yrotation Zrotation
										JOINT LeftHandThumb3
										{
											OFFSET 6.496506 -3.750763 3.750761
											CHANNELS 3 Xrotation Yrotation Zrotation
											JOINT LeftHandThumb4
											{
												OFFSET 5.616882 -3.242905 3.242910
												CHANNELS 3 Xrotation Yrotation Zrotation
												End Site
												{
													OFFSET -1.254608 7.132141 0.375429
												}
											}
										}
									}
								}
								JOINT LeftHandPinky1
								{
									OFFSET 18.920792 -0.453171 -11.426712
									CHANNELS 3 Xrotation Yrotation Zrotation
									JOINT LeftHandPinky2
									{
										OFFSET 4.919586 0.000000 0.000000
										CHANNELS 3 Xrotation Yrotation Zrotation
										JOINT LeftHandPinky3
										{
											OFFSET 5.233047 0.000000 0.000000
											CHANNELS 3 Xrotation Yrotation Zrotation
											JOINT LeftHandPinky4
											{
												OFFSET 5.571716 0.000000 0.000000
												CHANNELS 3 Xrotation Yrotation Zrotation
												End Site
												{
													OFFSET -3.459808 4.342407 -0.466164
												}
											}
										}
									}
								}
								JOINT LeftHandRing1
								{
									OFFSET 22.726120 -0.094986 -6.500475
									CHANNELS 3 Xrotation Yrotation Zrotation
									JOINT LeftHandRing2
									{
										OFFSET 6.408615 0.000000 0.000000
										CHANNELS 3 Xrotation Yrotation Zrotation
										JOINT LeftHandRing3
										{
											OFFSET 6.150223 0.000000 0.000000
											CHANNELS 3 Xrotation Yrotation Zrotation
											JOINT LeftHandRing4
											{
												OFFSET 6.145386 0.000000 0.000000
												CHANNELS 3 Xrotation Yrotation Zrotation
												End Site
												{
													OFFSET -3.671402 4.923981 -0.202372
												}
											}
										}
									}
								}
								JOINT LeftHandMiddle1
								{
									OFFSET 23.373947 0.000000 0.000001
									CHANNELS 3 Xrotation Yrotation Zrotation
									JOINT LeftHandMiddle2
									{
										OFFSET 6.996567 0.000000 0.000000
										CHANNELS 3 Xrotation Yrotation Zrotation
										JOINT LeftHandMiddle3
										{
											OFFSET 7.015945 0.000000 0.000000
											CHANNELS 3 Xrotation Yrotation Zrotation
											JOINT LeftHandMiddle4
											{
												OFFSET 7.721573 0.000000 0.000000
												CHANNELS 3 Xrotation Yrotation Zrotation
												End Site
												{
													OFFSET -4.651108 6.158463 0.251582
												}
											}
										}
									}
								}
								JOINT LeftHandIndex1
								{
									OFFSET 21.310577 -0.490082 6.209344
									CHANNELS 3 Xrotation Yrotation Zrotation
									JOINT LeftHandIndex2
									{
										OFFSET 7.536453 0.000000 0.000000
										CHANNELS 3 Xrotation Yrotation Zrotation
										JOINT LeftHandIndex3
										{
											OFFSET 7.512344 0.000000 0.000000
											CHANNELS 3 Xrotation Yrotation Zrotation
											JOINT LeftHandIndex4
											{
												OFFSET 10.212402 0.000000 0.000001
												CHANNELS 3 Xrotation Yrotation Zrotation
												End Site
												{
													OFFSET -5.180801 8.690506 1.388433
												}
											}
										}
									}
								}
							}
						}
					}
				}
				JOINT RightShoulder
				{
					OFFSET -17.399500 24.608795 1.168800
					CHANNELS 3 Xrotation Yrotation Zrotation
					JOINT RightArm
					{
						OFFSET -18.980635 5.765305 1.818600
						CHANNELS 3 Xrotation Yrotation Zrotation
						JOINT RightForeArm
						{
							OFFSET -49.290169 0.000000 0.000000
							CHANNELS 3 Xrotation Yrotation Zrotation
							JOINT RightHand
							{
								OFFSET -31.562012 0.000000 0.000000
								CHANNELS 3 Xrotation Yrotation Zrotation
								JOINT RightHandThumb1
								{
									OFFSET -6.133995 -4.388519 7.076070
									CHANNELS 3 Xrotation Yrotation Zrotation
									JOINT RightHandThumb2
									{
										OFFSET -6.037666 -3.485840 3.485847
										CHANNELS 3 Xrotation Yrotation Zrotation
										JOINT RightHandThumb3
										{
											OFFSET -6.496506 -3.750763 3.750761
											CHANNELS 3 Xrotation Yrotation Zrotation
											JOINT RightHandThumb4
											{
												OFFSET -5.616882 -3.242905 3.242910
												CHANNELS 3 Xrotation Yrotation Zrotation
												End Site
												{
													OFFSET 1.254608 7.132141 0.375429
												}
											}
										}
									}
								}
								JOINT RightHandIndex1
								{
									OFFSET -21.310577 -0.490082 6.209344
									CHANNELS 3 Xrotation Yrotation Zrotation
									JOINT RightHandIndex2
									{
										OFFSET -7.536453 0.000000 0.000000
										CHANNELS 3 Xrotation Yrotation Zrotation
										JOINT RightHandIndex3
										{
											OFFSET -7.512344 0.000000 0.000000
											CHANNELS 3 Xrotation Yrotation Zrotation
											JOINT RightHandIndex4
											{
												OFFSET -10.212402 0.000000 0.000001
												CHANNELS 3 Xrotation Yrotation Zrotation
												End Site
												{
													OFFSET 5.180801 8.690506 1.388433
												}
											}
										}
									}
								}
								JOINT RightHandMiddle1
								{
									OFFSET -23.373947 0.000000 0.000001
									CHANNELS 3 Xrotation Yrotation Zrotation
									JOINT RightHandMiddle2
									{
										OFFSET -6.996567 0.000000 0.000000
										CHANNELS 3 Xrotation Yrotation Zrotation
										JOINT RightHandMiddle3
										{
											OFFSET -7.015945 0.000000 0.000000
											CHANNELS 3 Xrotation Yrotation Zrotation
											JOINT RightHandMiddle4
											{
												OFFSET -7.721573 0.000000 0.000000
												CHANNELS 3 Xrotation Yrotation Zrotation
												End Site
												{
													OFFSET 4.651108 6.158463 0.251582
												}
											}
										}
									}
								}
								JOINT RightHandRing1
								{
									OFFSET -22.726120 -0.094986 -6.500475
									CHANNELS 3 Xrotation Yrotation Zrotation
									JOINT RightHandRing2
									{
										OFFSET -6.408615 0.000000 0.000000
										CHANNELS 3 Xrotation Yrotation Zrotation
										JOINT RightHandRing3
										{
											OFFSET -6.150223 0.000000 0.000000
											CHANNELS 3 Xrotation Yrotation Zrotation
											JOINT RightHandRing4
											{
												OFFSET -6.145386 0.000000 0.000000
												CHANNELS 3 Xrotation Yrotation Zrotation
												End Site
												{
													OFFSET 3.671402 4.923981 -0.202372
												}
											}
										}
									}
								}
								JOINT RightHandPinky1
								{
									OFFSET -18.920792 -0.453171 -11.426712
									CHANNELS 3 Xrotation Yrotation Zrotation
									JOINT RightHandPinky2
									{
										OFFSET -4.919586 0.000000 0.000000
										CHANNELS 3 Xrotation Yrotation Zrotation
										JOINT RightHandPinky3
										{
											OFFSET -5.233047 0.000000 0.000000
											CHANNELS 3 Xrotation Yrotation Zrotation
											JOINT RightHandPinky4
											{
												OFFSET -5.571716 0.000000 0.000000
												CHANNELS 3 Xrotation Yrotation Zrotation
												End Site
												{
													OFFSET 3.459808 4.342407 -0.466164
												}
											}
										}
									}
								}
							}
						}
					}
				}
			}
		}
	}
	JOINT LeftUpLeg
	{
		OFFSET 19.899099 -7.885101 -3.429500
		CHANNELS 3 Xrotation Yrotation Zrotation
		JOINT LeftLeg
		{
			OFFSET 1.745560 -36.997807 10.304700
			CHANNELS 3 Xrotation Yrotation Zrotation
			JOINT LeftFoot
			{
				OFFSET -1.745558 -29.803308 -13.615400
				CHANNELS 3 Xrotation Yrotation Zrotation
				JOINT LeftToeBase
				{
					OFFSET 1.181900 -18.539904 15.226099
					CHANNELS 3 Xrotation Yrotation Zrotation
					JOINT LeftToe_End
					{
						OFFSET -0.863701 1.402801 16.534700
						CHANNELS 3 Xrotation Yrotation Zrotation
						End Site
						{
							OFFSET 0.000000 16.616566 0.000000
						}
					}
				}
			}
		}
	}
	JOINT RightUpLeg
	{
		OFFSET -19.899099 -7.885101 -3.429500
		CHANNELS 3 Xrotation Yrotation Zrotation
		JOINT RightLeg
		{
			OFFSET -1.745560 -36.997807 10.304700
			CHANNELS 3 Xrotation Yrotation Zrotation
			JOINT RightFoot
			{
				OFFSET 1.745558 -29.803308 -13.615400
				CHANNELS 3 Xrotation Yrotation Zrotation
				JOINT RightToeBase
				{
					OFFSET -1.181900 -18.539904 15.226099
					CHANNELS 3 Xrotation Yrotation Zrotation
					JOINT RightToe_End
					{
						OFFSET 0.863701 1.402801 16.534700
						CHANNELS 3 Xrotation Yrotation Zrotation
						End Site
						{
							OFFSET 0.000000 16.616566 0.000000
						}
					}
				}
			}
		}
	}
}
MOTION
Frames: 4
Frame Time: 0.033333
1.094639 87.016518 166.005356 -10.593920 7.466973 3.356765 16.729976 -6.214047 -0.786949 3.224985 -1.647458 -0.468208 3.235458 -1.643663 -0.412308 -10.547616 0.158377 1.983921 0.517778 3.913706 -0.867839 0.000000 -0.000000 -0.000000 1.788526 -3.026691 -5.215264 3.913414 -11.950446 -67.632342 0.000015 -34.155143 -0.000001 -28.584111 1.420674 5.025512 -3.457389 3.661030 7.899931 9.723670 22.276747 2.900218 -5.872229 9.754738 15.688142 0.000000 0.000001 0.000001 0.915954 5.400068 -31.249430 1.125838 3.454593 -36.091870 1.125834 3.454595 -36.091860 -0.000001 0.000005 0.000000 0.700750 5.014829 -26.927070 0.879351 3.088836 -31.774972 0.879351 3.088834 -31.774969 0.000000 0.000000 0.000003 0.370767 4.230948 -18.597598 0.484876 2.335574 -23.453408 0.484872 2.335575 -23.453449 0.000001 -0.000001 0.000004 0.167144 3.455062 -10.751244 0.216566 1.579701 -15.611557 0.216567 1.579699 -15.611557 -0.000001 0.000001 -0.000001 0.805985 9.326724 15.386263 -3.396442 1.895463 67.073667 0.000006 19.309425 0.000013 1.301829 -6.738419 -8.014793 -1.986171 -5.435664 -3.761583 8.766504 -20.697674 -3.062069 -5.504766 -5.510961 -14.718506 0.000001 -0.000002 -0.000003 2.057118 -6.108248 55.293568 5.419350 -4.594527 99.429379 3.163294 -4.411562 71.271282 -0.000002 -0.000003 -0.000001 2.592847 -6.426557 62.973436 4.946635 -4.648183 93.567322 3.098016 -4.388962 70.420596 0.000001 0.000001 -0.000008 2.854990 -6.549363 66.538590 4.919153 -4.649808 93.228223 2.921292 -4.322229 68.093899 -0.000002 0.000001 -0.000003 1.542111 -5.696813 47.168200 2.898964 -4.313209 67.797352 2.788741 -4.266698 66.323937 0.000002 -0.000004 0.000007 -10.064348 7.341480 0.161049 52.961331 -3.861508 2.293704 9.233875 -0.950102 -2.416276 -32.748360 -1.956651 3.383054 0.000001 0.000001 -0.000000 -12.923333 -8.252061 -2.180543 36.730138 5.394325 2.762213 -13.337499 1.681162 -7.141713 -1.139647 0.000002 -0.000001 0.000000 -0.000000 -0.000000 
0.961434 89.597656 172.972092 -9.667957 6.021095 3.210510 15.911817 -4.966441 -0.890840 2.828934 -1.297233 -0.520220 2.839538 -1.291909 -0.480964 -10.214283 -0.289806 1.928839 0.642590 3.946485 -0.951179 -0.000000 0.000000 -0.000000 1.791863 -2.817354 -5.365854 8.347199 -11.449691 -68.845950 -0.000003 -33.539036 -0.000045 -23.608535 5.693673 2.838405 -3.469528 3.608119 7.886747 9.702737 22.225058 2.897720 -5.879067 9.699128 15.674871 0.000003 -0.000001 -0.000001 0.902506 5.377878 -30.995381 1.110594 3.433623 -35.838180 1.110595 3.433624 -35.838160 0.000001 -0.000000 -0.000007 0.689025 4.991712 -26.673282 0.865736 3.066782 -31.521432 0.865737 3.066782 -31.521453 -0.000001 -0.000000 0.000002 0.362539 4.206378 -18.344232 0.474611 2.311792 -23.200218 0.474608 2.311789 -23.200233 -0.000000 -0.000001 0.000006 0.162355 3.429604 -10.498181 0.209655 1.554737 -15.358570 0.209648 1.554737 -15.358589 -0.000001 0.000001 0.000002 0.806195 9.462914 15.261721 -2.962852 1.768761 67.176700 -0.000000 20.011855 -0.000004 1.318002 -7.062426 -8.055909 -1.986174 -5.435664 -3.761582 8.766506 -20.697678 -3.062068 -5.504764 -5.510965 -14.718501 -0.000002 -0.000001 -0.000004 2.057120 -6.108245 55.293568 5.419347 -4.594531 99.429379 3.163293 -4.411563 71.271282 -0.000001 -0.000003 0.000001 2.592845 -6.426554 62.973429 4.946630 -4.648179 93.567322 3.098016 -4.388961 70.420589 0.000001 0.000000 -0.000008 2.854988 -6.549364 66.538583 4.919153 -4.649808 93.228223 2.921292 -4.322225 68.093899 -0.000002 -0.000000 -0.000003 1.542111 -5.696815 47.168200 2.898967 -4.313206 67.797359 2.788740 -4.266697 66.323937 -0.000000 -0.000004 0.000002 -16.401980 6.287214 -0.982604 46.499627 -4.105641 -0.419547 5.887384 -0.621604 -0.777866 -15.828948 -1.140687 4.550618 -0.000001 -0.000000 0.000000 -4.259759 -7.082123 -0.844536 29.900202 5.466056 2.989071 -15.888610 1.867540 -7.418044 -1.006315 -0.000001 -0.000001 -0.000000 0.000000 0.000000 
0.961434 89.597656 172.972092 -9.667957 6.021095 3.210510 15.911817 -4.966441 -0.890840 2.828934 -1.297233 -0.520220 2.839538 -1.291909 -0.480964 -10.214283 -0.289806 1.928839 0.642590 3.946485 -0.951179 -0.000000 0.000000 -0.000000 1.791863 -2.817354 -5.365854 8.347199 -11.449691 -68.845950 -0.000003 -33.539036 -0.000045 -23.608535 5.693673 2.838405 -3.469528 3.608119 7.886747 9.702737 22.225058 2.897720 -5.879067 9.699128 15.674871 0.000003 -0.000001 -0.000001 0.902506 5.377878 -30.995381 1.110594 3.433623 -35.838180 1.110595 3.433624 -35.838160 0.000001 -0.000000 -0.000007 0.689025 4.991712 -26.673282 0.865736 3.066782 -31.521432 0.865737 3.066782 -31.521453 -0.000001 -0.000000 0.000002 0.362539 4.206378 -18.344232 0.474611 2.311792 -23.200218 0.474608 2.311789 -23.200233 -0.000000 -0.000001 0.000006 0.162355 3.429604 -10.498181 0.209655 1.554737 -15.358570 0.209648 1.554737 -15.358589 -0.000001 0.000001 0.000002 0.806195 9.462914 15.261721 -2.962852 1.768761 67.176700 -0.000000 20.011855 -0.000004 1.318002 -7.062426 -8.055909 -1.986174 -5.435664 -3.761582 8.766506 -20.697678 -3.062068 -5.504764 -5.510965 -14.718501 -0.000002 -0.000001 -0.000004 2.057120 -6.108245 55.293568 5.419347 -4.594531 99.429379 3.163293 -4.411563 71.271282 -0.000001 -0.000003 0.000001 2.592845 -6.426554 62.973429 4.946630 -4.648179 93.567322 3.098016 -4.388961 70.420589 0.000001 0.000000 -0.000008 2.854988 -6.549364 66.538583 4.919153 -4.649808 93.228223 2.921292 -4.322225 68.093899 -0.000002 -0.000000 -0.000003 1.542111 -5.696815 47.168200 2.898967 -4.313206 67.797359 2.788740 -4.266697 66.323937 -0.000000 -0.000004 0.000002 -16.401980 6.287214 -0.982604 46.499627 -4.105641 -0.419547 5.887384 -0.621604 -0.777866 -15.828948 -1.140687 4.550618 -0.000001 -0.000000 0.000000 -4.259759 -7.082123 -0.844536 29.900202 5.466056 2.989071 -15.888610 1.867540 -7.418044 -1.006315 -0.000001 -0.000001 -0.000000 0.000000 0.000000 
0.961434 89.597656 172.972092 -9.667957 6.021095 3.210510 15.911817 -4.966441 -0.890840 2.828934 -1.297233 -0.520220 2.839538 -1.291909 -0.480964 -10.214283 -0.289806 1.928839 0.642590 3.946485 -0.951179 -0.000000 0.000000 -0.000000 1.791863 -2.817354 -5.365854 8.347199 -11.449691 -68.845950 -0.000003 -33.539036 -0.000045 -23.608535 5.693673 2.838405 -3.469528 3.608119 7.886747 9.702737 22.225058 2.897720 -5.879067 9.699128 15.674871 0.000003 -0.000001 -0.000001 0.902506 5.377878 -30.995381 1.110594 3.433623 -35.838180 1.110595 3.433624 -35.838160 0.000001 -0.000000 -0.000007 0.689025 4.991712 -26.673282 0.865736 3.066782 -31.521432 0.865737 3.066782 -31.521453 -0.000001 -0.000000 0.000002 0.362539 4.206378 -18.344232 0.474611 2.311792 -23.200218 0.474608 2.311789 -23.200233 -0.000000 -0.000001 0.000006 0.162355 3.429604 -10.498181 0.209655 1.554737 -15.358570 0.209648 1.554737 -15.358589 -0.000001 0.000001 0.000002 0.806195 9.462914 15.261721 -2.962852 1.768761 67.176700 -0.000000 20.011855 -0.000004 1.318002 -7.062426 -8.055909 -1.986174 -5.435664 -3.761582 8.766506 -20.697678 -3.062068 -5.504764 -5.510965 -14.718501 -0.000002 -0.000001 -0.000004 2.057120 -6.108245 55.293568 5.419347 -4.594531 99.429379 3.163293 -4.411563 71.271282 -0.000001 -0.000003 0.000001 2.592845 -6.426554 62.973429 4.946630 -4.648179 93.567322 3.098016 -4.388961 70.420589 0.000001 0.000000 -0.000008 2.854988 -6.549364 66.538583 4.919153 -4.649808 93.228223 2.921292 -4.322225 68.093899 -0.000002 -0.000000 -0.000003 1.542111 -5.696815 47.168200 2.898967 -4.313206 67.797359 2.788740 -4.266697 66.323937 -0.000000 -0.000004 0.000002 -16.401980 6.287214 -0.982604 46.499627 -4.105641 -0.419547 5.887384 -0.621604 -0.777866 -15.828948 -1.140687 4.550618 -0.000001 -0.000000 0.000000 -4.259759 -7.082123 -0.844536 29.900202 5.466056 2.989071 -15.888610 1.867540 -7.418044 -1.006315 -0.000001 -0.000001 -0.000000 0.000000 0.000000 
